<?xml version="1.0" encoding="utf-8"?>
<!-- Generator: Adobe Illustrator 23.0.6, SVG Export Plug-In . SVG Version: 6.00 Build 0)  -->
<svg version="1.1" id="Layer_1" xmlns="http://www.w3.org/2000/svg" xmlns:xlink="http://www.w3.org/1999/xlink" x="0px" y="0px"
	 viewBox="0 0 5896.06 1157.81" style="enable-background:new 0 0 5896.06 1157.81;" xml:space="preserve">
<style type="text/css">
	.st0{fill:none;stroke:#000000;stroke-width:10;stroke-miterlimit:10;}
	.st1{fill:#13110C;}
	.st2{fill:#FFFFFF;stroke:#000000;stroke-width:10;stroke-miterlimit:10;}
	.st3{fill:#FFFFFF;}
</style>
<g>
	<g>
		<path class="st3" d="M110.35,653.41V457.9C110.35,541.55,0,546.18,0,555.66C0,565.13,110.35,572.09,110.35,653.41"/>
		<path class="st3" d="M1077.46,555.66c0-8.88-96.33-13.51-108.99-82.32V171.27v-15.96c0-22.19,18.05-40.2,40.28-40.2h14.71
			c22.71,0,43.58-15.03,48.55-37.22c7.02-31.19-16.86-59.14-46.92-59.14h-56.61h-34.4h-10.51c-70.96,0-77.02,96.36-85.3,96.36
			c-8.27,0-12.32-96.36-85.34-96.36H741.9h-33.94h-55.01c-22.68,0-43.54,14.97-48.55,37.15c-7.03,31.26,16.85,59.21,46.96,59.21
			h16.39c22.19,0,40.2,17.95,40.2,40.14v16.49v466.78L382.32,39.73c-7.06-12.98-20.55-20.99-35.33-20.99H110.38H55.41
			c-22.76,0-43.59,14.97-48.58,37.15C-0.2,87.15,23.69,115.1,53.82,115.1h16.32c22.22,0,40.23,18.01,40.23,40.2v16.43v797.52v17.01
			c0,22.27-18.01,40.28-40.23,40.28H55.41c-22.76,0-43.59,15.04-48.58,37.15c-7.04,31.18,16.85,59.14,46.98,59.14h56.56h33.97h10.46
			c70.98,0,77.04-96.3,85.31-96.3c8.28,0,12.32,96.3,85.34,96.3h11.04h34.43h54.95c22.74,0,43.58-15.04,48.55-37.15
			c7.03-31.19-16.85-59.14-46.93-59.14h-16.41c-22.17,0-40.15-18.01-40.15-40.2v-17.09V553.93l325.33,549.23
			c7.23,12.19,20.37,19.68,34.55,19.68h10.17h10.46h170.64h11.06h35.33h56.61c30.06,0,53.94-27.96,46.92-59.14
			c-4.97-22.12-25.83-37.15-48.55-37.15h-14.94c-22.09,0-40.04-17.95-40.04-40.07v-17.21V638.38
			C981.14,571.22,1077.46,564.54,1077.46,555.66"/>
		<path class="st3" d="M1590.84,240.14c2.91-56.43,48.18-101.53,104.68-104.18c8.77,0.13,17.42,0.73,25.92,1.8
			c60.91,7.41,114.86,37.54,152.98,81.79c8.9,13.64,17.77,27.29,26.76,41c2.31,4.23,4.99,8.2,7.97,11.92
			c19.48,24.37,51.7,38.22,86.4,30.65c40-8.6,67.52-45.55,67.52-86.49V37.95c0-11.2-9.07-20.26-20.29-20.26H1910.5
			c-11.2,0-20.3,9.13-20.3,20.26v72.39c-87.85-58.75-193.39-93.05-306.97-93.05c-5.15,0-65.56,1.45-65.56,1.45
			c-72.51,0-78.74,98.48-87.22,98.48c-8.47,0-12.54-98.48-87.16-98.48l-131.64-1.05c-26.49,0-48.19,21.64-48.19,48.13
			s21.7,48.15,48.19,48.15h16.37c22.21,0,40.22,18.02,40.22,40.2v16.49v314.99c0,83.59-110.37,88.22-110.37,97.75
			c0,9.48,110.37,16.36,110.37,97.7v11.98v278.23v16.42c0,22.24-18.05,40.28-40.3,40.28h-14.67c-22.76,0-43.59,15.03-48.59,37.22
			c-7.02,31.19,16.86,59.13,46.96,59.13h131.64c74.61,0,78.69-98.49,87.16-98.49c8.48,0,14.71,98.49,87.22,98.49h10.71h62.46v-0.33
			c0.27-0.06,0.5-0.13,0.76-0.13c190.74-2.85,358.01-102.26,455.34-251.4c3.11-4.77,6.23-9.53,9.19-14.44
			c5.9-12.45,8.15-27.09,4.81-42.45c-5.56-25.23-26.18-45.43-51.66-50.2c-26.19-4.84-50.2,5.89-64.57,24.5l-0.3-0.27
			c-48.43,72.25-118.03,129.08-199.9,161.85c-3.67,1.53-7.34,2.98-11.19,4.18c-10.27,3.11-21.23,4.83-32.56,4.83
			c-58.95,0-106.92-46.29-109.93-104.44v-11.53V702.82V686.8c0-22.19,18.01-40.2,40.23-40.2h16.62h158.69
			c35.86,0,68.36-23.98,76.07-59.01c4.34-19.61,0.8-38.35-7.95-53.78c-13.01-23.05-37.75-38.67-65.96-38.67h-160.61h-16.99
			c-22.13,0-40.1-17.96-40.1-40.15v-16.03V251.67V240.14z"/>
		<path class="st3" d="M3196.84,571.08c0,8.48,98.46,14.65,98.46,87.16V483.87C3295.3,558.44,3196.84,562.61,3196.84,571.08"/>
		<path class="st3" d="M3664.07,1027.8h-27.19h-16.92c-22.02,0.06-39.87-17.83-39.87-39.87V653.21
			c4.48-67.74,98.24-73.84,98.24-82.12c0-8.28-93.76-12.44-98.24-82.05V170.27v-16.69c0-22.04,17.88-39.86,39.94-39.86l16.52,0.05
			h27.52c22.71,0,43.59-15.03,48.55-37.16c6.99-31.25-16.8-59.13-46.95-59.13l-140.38,0.2c-72.55,0-78.74,98.41-87.22,98.41
			c-8.48,0-12.58-98.41-87.2-98.41l-140.93-0.2c-30.1,0-53.99,27.87-46.98,59.13c5.01,22.13,25.84,37.16,48.56,37.16h27.22h16.56
			c22.18,0,40.2,18.03,40.2,40.2v16.3v817.27c0,22.26-18.04,40.26-40.23,40.26h-16.56h-27.19c-22.71,0-43.55,15.03-48.56,37.22
			c-7.02,31.19,16.87,59.14,46.98,59.14h140.93c74.62,0,78.72-98.49,87.2-98.49c8.48,0,14.67,98.49,87.22,98.49h10.67h129.72
			c30.15,0,53.95-27.95,46.95-59.14C3707.66,1042.83,3686.78,1027.8,3664.07,1027.8"/>
		<path class="st3" d="M2939.59,295.57c3.65,1.33,7.38,2.51,11.23,3.31c6.05,1.33,12.31,2.12,18.74,2.12
			c28.16,0,53.25-13.51,69.32-34.24c11.58-14.83,18.51-33.44,18.51-53.65V29.47c0-11.33-9.26-20.59-20.64-20.59h-134.35
			c-11.36,0-20.65,9.27-20.65,20.59v37.09c-17.46-10.86-35.86-20.39-55.15-28.27c-43.67-18.01-91.46-27.96-141.6-27.96
			c-242.63,0-439.32,196.63-439.32,439.3v21.38v11.46c0,75.78-100.04,80-100.04,88.62c0,8.62,100.04,14.83,100.04,88.55v10.93v22.91
			c0,242.59,196.69,439.22,439.32,439.22c50.15,0,97.93-9.93,141.6-27.94c135.45-55.7,230.8-188.87,230.8-344.39v-59.07
			c0-28.81-23.32-52.12-52.1-52.12h-11.12c-28.81,0-52.12,23.31-52.12,52.12c0,0,1.94,61.19,1.94,70.67
			c0,11.38-0.99,22.57-2.8,33.44c-15.9,95.16-98.65,167.75-198.37,167.75c-61.59,0-116.7-27.68-153.6-71.26
			c-14.17-20.65-27.04-43.98-38.38-69.6c-24.87-56.24-42.23-123.26-49.37-196.5c17.95-53.44,96.34-57.63,96.34-65.3
			c0-7.82-82.76-13.78-97.7-70.28c16.59-215.97,121.44-382.59,248.39-382.59c27.27,0,53.52,7.82,78.09,22.06
			c11.46,6.62,22.55,14.7,33.26,23.97c14.16,12.45,21.89,30.65,21.89,49.47C2881.74,250.94,2905.94,283.26,2939.59,295.57"/>
		<path class="st3" d="M4786.64,482v-11.58v-31.66c0-218.82-160.18-400.15-369.72-433.27c-22.5-3.57-45.55-5.5-69.04-5.5
			c-23.51,0-46.51,1.93-69.04,5.5c-209.48,33.12-369.75,214.45-369.75,433.27v31.66V482c0,76.24-100.61,80.41-100.61,89.08
			c0,8.68,100.61,14.96,100.61,89.08v10.92v31.74c0,242.33,196.44,438.76,438.79,438.76c242.31,0,438.76-196.43,438.76-438.76
			v-31.74v-10.92c0-74.12,100.61-80.4,100.61-89.08C4887.26,562.41,4786.64,558.24,4786.64,482 M4465.67,280.21v581.15v59.94
			c0,68.41-55.99,124.44-124.36,124.44h-0.06c-68.39,0-124.35-56.04-124.35-124.44v-63.72V283.99v-49.34
			c0-68.41,55.96-124.44,124.35-124.44h0.06c68.37,0,124.36,56.03,124.36,124.44V280.21z"/>
		<polygon class="st3" points="4211.59,1048.26 4147.8,1024.22 4504.25,79.87 4568.03,103.91 		"/>
		<path class="st3" d="M5794.96,759.97c-3.08-6.17-5.3-14.31-6.22-18.08c0.34,1.39,0.66,2.72,0.96,4.1
			c0.55,2.38,0.96,4.84,1.43,7.29c-0.93-4.51-1.75-9.01-2.88-13.44c-13.42-55.05-40.79-104.58-78.04-144.85
			c-2.55-2.72-5.08-5.43-7.72-8.08c-1.31-1.32-2.77-2.65-4.1-3.98c-34.91-33.97-77.3-60.2-124.56-75.96
			c-32.72-10.99-67.65-17.03-104.05-17.03h-6.15h-39.97l118.4-313.65c-2.88-1.52-5.86-2.85-8.76-4.23c2.9,1.38,5.88,2.71,8.76,4.23
			c15.18,7.82,29.69,16.83,43.38,26.89c0.62,0.46,1.27,0.93,1.91,1.39c12.58,9.41,19.71,24.44,19.71,40.13
			c0,46.23,36.8,84.19,82.49,86.23c1.31,0.07,2.61,0.27,3.94,0.27c9.64,0,18.88-1.71,27.58-4.63c28.36-9.67,50.21-33.65,56.79-63.26
			c1.33-6.02,2.05-12.18,2.05-18.61v-62.24V63.91c0-11.13-9.11-20.26-20.28-20.26h-132.28c-11.18,0-20.28,9.13-20.28,20.26v5.56
			v30.86v31.14c-53.09-51-119.73-87.88-193.97-104.78c2.06,0.07,4.13,0.07,6.18,0.2c-10.49-2.05-21.08-3.71-31.79-5.23
			c-21.59-3.45-43.69-5.36-66.29-5.36c-1.81,0-3.6,0.13-5.43,0.13c-1.78,0-3.6-0.13-5.43-0.13c-3.49,0-6.97,0.2-10.46,0.27
			c-3.46-0.06-6.95-0.27-10.46-0.27c-22.71,0-44.83,2.32-66.22,6.7c-61.37,12.58-116.41,42.39-160.02,84.04
			c-20.21,19.28-37.96,41.07-52.68,64.91c-16.99,27.48-29.91,57.68-38.21,89.74c-0.1,0.47-0.24,0.87-0.38,1.33
			c-1.03,4.17-2.18,8.27-3.09,12.51c-18.58,51-97.39,56.76-97.39,64.24c0,7.82,83.97,11.98,97.07,70.99
			c0.14,0.73,0.05,0.27-0.07-0.92c0.64,3.17,1.2,6.35,1.91,9.4c5.28,22.32,12.74,43.77,22.27,64.11c2.44,5.17,5,10.27,7.71,15.36
			c23.12,43.12,55.59,80.47,94.7,109.34c27.24,20.01,57.6,35.97,90.32,46.89c30.99,10.41,64.08,16.29,98.37,16.83l-136.88,362.74
			c-29.07-15.37-48.61-45.77-48.61-80.48c0-45.43-33.92-85.3-79.27-89c-26.01-2.13-49.86,7.41-67.04,23.97
			c-3.11,2.98-6.01,6.28-8.65,9.73c-5.45,7.08-9.88,15.09-12.92,23.71c-3.22,9.01-5.03,18.67-5.03,28.69v45.55v135.25
			c0,11.19,9.14,20.32,20.35,20.32h132.22c11.15,0,20.34-9.14,20.34-20.32v-25.17v-26.69c42.11,27.09,89.41,46.89,140.13,57.23
			c13.92,3.83,28.03,7.21,42.33,10c35.28,6.88,71.68,10.53,108.92,10.53c49.73,0,97.96-6.43,143.92-18.48
			c32.48-6.37,63.26-17.56,91.51-32.79c80.19-43.18,140.29-118.81,162.79-209.34c1.46-5.76,2.77-11.6,3.88-17.49
			c-0.58,2.97-1.2,5.95-1.89,8.87c0.39-1.45,1.06-3.58,2.08-6.09c19.77-51.27,104.18-56.97,104.18-64.45
			C5896.06,810.84,5818.32,806.8,5794.96,759.97 M5191,341.34c0-109.81,87.68-200.81,197.45-201.73c1.02-0.06,1.97-0.06,2.93-0.06
			c30.73,0,60.44,4.37,88.61,12.31l-127.61,338.09h-12.71C5257.59,489.95,5191,423.39,5191,341.34 M5546.4,845.81
			c0,114.24-92.65,206.89-206.91,206.89c0,0-63.92-0.14-126.36-5.04l141.86-375.78h30.94c88.61,0,160.47,71.86,160.47,160.47V845.81
			z"/>
	</g>
</g>
</svg>
