<?xml version="1.0" encoding="utf-8"?>
<!-- Generator: Adobe Illustrator 23.0.6, SVG Export Plug-In . SVG Version: 6.00 Build 0)  -->
<svg version="1.1" xmlns="http://www.w3.org/2000/svg" xmlns:xlink="http://www.w3.org/1999/xlink" x="0px" y="0px"
	 viewBox="0 0 199.73 220.68" style="enable-background:new 0 0 199.73 220.68;" xml:space="preserve">
<style type="text/css">
	.st0{fill:#F9F9F9;}
	.st1{opacity:0.66;fill:url(#SVGID_3_);}
	.st2{fill-rule:evenodd;clip-rule:evenodd;fill:#FFFFFF;}
	.st3{fill:#FFFFFF;}
	.st4{fill:none;stroke:#FFFFFF;stroke-width:6;stroke-miterlimit:10;}
	.st5{fill:#231F20;}
	.st6{fill:none;stroke:#000000;stroke-width:7;stroke-miterlimit:10;}
	.st7{fill:#FFFFFF;stroke:#000000;stroke-width:2;stroke-miterlimit:10;}
	.st8{fill:#BE272D;stroke:#BE272D;stroke-width:2;stroke-miterlimit:10;}
	.st9{fill:#1C1C1B;}
	.st10{fill:#FA969E;}
	.st11{fill:#969696;}
	.st12{fill:#4D4D4D;}
	.st13{fill:none;stroke:#FEFEFE;stroke-width:5;stroke-miterlimit:10;}
	.st14{opacity:0.2;fill:#E3E3E3;}
	.st15{fill:#F96668;stroke:#000000;stroke-miterlimit:10;}
	.st16{fill:#B0B0B0;}
	.st17{opacity:0.5;}
	.st18{clip-path:url(#SVGID_11_);fill:none;stroke:#000000;stroke-miterlimit:10;}
	.st19{clip-path:url(#SVGID_13_);fill:none;stroke:#000000;stroke-miterlimit:10;}
	.st20{clip-path:url(#SVGID_15_);fill:none;stroke:#000000;stroke-miterlimit:10;}
	.st21{clip-path:url(#SVGID_17_);fill:none;stroke:#000000;stroke-miterlimit:10;}
</style>
<g id="Capa_2">
	<g>
		<g>
			<g>
				<path d="M91.02,5.66c-4.28,1.5-8.64,13.39-9.23,14.73c-0.81,1.83-1.51,3.7-2.35,5.79c1.16-0.56,2.03-1.06,2.95-1.42
					c3.94-1.55,7.9-1.31,11.69,0.32c2.1,0.91,3.95,2.4,5.96,3.55c3.03,1.75,6.25,3.16,9.7,3.61c2.32,0.3,4.74-0.06,7.11-0.26
					c2.14-0.18,7.36-0.64,8.36-0.45c-3.09,3.58-5.79,6.93-8.73,10.04c-2.48,2.62-5.7,3.9-9.33,4.08c-0.77,0.04-1.54,0.1-2.31,0.21
					c-1.82,0.26-3.54-0.03-5.18-0.81c-1.53-0.73-3.08-1.44-4.56-2.27c-3.47-1.97-7.26-3.02-11.07-4c-3.6-0.93-7.19-0.78-10.68,0.59
					c-2.02,0.79-3.71,1.99-5.05,4.39c1.05-0.51,1.65-0.79,2.25-1.09c2.43-1.19,5.01-1.72,7.65-1.12c1.7,0.38,3.33,1.15,4.94,1.86
					c1.41,0.62,2.73,1.43,4.11,2.12c3.26,1.62,11.26,1.81,11.75,1.93c-0.18,0.45-5.54,5.51-8.64,6.63c-1.87,0.67-3.9,0.93-5.81,1.52
					c-1.98,0.61-3.92,0.61-5.94,0.33c-2.29-0.31-4.6-0.48-6.91-0.52c-1.13-0.02-2.34,0.2-3.37,0.65c-3.7,1.6-6.01,4.29-5.86,8.54
					c0.03,0.99-0.72,2.09,0.29,3.15c3.08-1.93,6.43-2.75,9.93-2.93c2.68-0.14,5.15-0.89,7.56-1.95c0.66-0.29,1.37-0.47,2.05-0.7
					c0.12,0.13,0.23,0.26,0.35,0.38c-0.38,0.89-0.63,1.86-1.15,2.65c-1.48,2.25-3.03,4.46-4.62,6.64c-1.58,2.18-3.75,3.61-6.21,4.68
					c-1.91,0.83-3.81,1.7-5.61,2.73c-0.97,0.56-1.8,1.42-2.55,2.27c-0.54,0.62-0.8,1.45-0.19,2.39c1.77-0.7,8.24-4.28,10.57-4.74
					c-0.62,3.24-1.14,6.1-1.75,8.94c-0.12,0.56-5.87,7.35-6.24,7.74c-1.75,1.84-2.94,4-3.26,6.51c-0.57,4.37,0.24,8.57,1.81,12.67
					c0.52,1.35,0.93,2.76,1.21,4.18c0.28,1.38-0.16,1.95-1.49,1.91c-1.89-0.05-3.75-0.56-4.96-2.09c-1.9-2.4-3.02-5.19-3.46-8.22
					c-0.28-1.9-0.41-3.83-0.66-5.74c-0.28-2.09-0.96-4.04-2.26-5.75c-1.07-1.42-2.16-2.83-3.05-4.36c-1.31-2.26-2.67-4.52-3.6-6.94
					c-1.42-3.7-1.87-12.69-1.78-13.24c0.17-0.06,6,6.78,9.45,9.75c0.29-2,0.35-3.9,0.35-5.81c0-1.28-0.37-2.43-1.32-3.35
					c-1.76-1.72-3.57-3.4-5.25-5.2c-1.99-2.13-4.2-4.17-5.73-6.62c-2.63-4.21-2-14.74-1.71-15.33c0.54,0.46,6.68,6.85,10.16,8.94
					c0.77,0.46,1.33,1.26,1.99,1.92c0.79,0.79,1.58,1.59,2.65,2.66c0.06-0.81,0.16-1.18,0.1-1.52c-0.49-2.98-1.08-5.91-2.85-8.48
					c-1.62-2.34-3.08-4.81-4.73-7.13c-1.76-2.47-2.77-5.2-2.83-8.19c-0.11-5.62,5.36-16.67,6.14-17.45
					c0.31,0.88,1.83,6.18,3.46,7.67c3.29,3.01,5.54,6.57,6.74,10.83c0.1,0.34,0.27,0.66,0.6,1.43c1.24-2.7,2.25-4.99,1.73-7.62
					c-0.39-1.96-0.9-3.9-1.4-5.83c-0.67-2.59-0.7-5.13-0.07-7.77c0.86-3.58,2.72-6.53,5.1-9.19c1.86-2.08,4.03-3.89,6.7-4.82
					c2.98-1.05,6.03-1.87,9.06-2.75c5.21-1.52,10.39-0.86,15.53,0.39C98.09,1.47,93.48,4.79,91.02,5.66z"/>
			</g>
			<g>
				<path d="M116.47,156.99c-0.8-1.28-1.75-2.63-2.98-3.44c-1.78-1.18-3.83-1.99-5.82-2.8c-3.9-1.6-8.06-1.99-12.18-2.61
					c-2.21-0.33-4.42-0.71-6.59-1.2c-1.1-0.25-2.52-0.6-2.52-1.99c0-1.41,1.38-2.11,2.54-2.29c1.64-0.25,3.37-0.22,5.02,0
					c3.59,0.48,7.15,1.2,10.74,1.74c3.05,0.46,6.11,0.85,9.18,1.17c4.52,0.47,8.74-0.93,12.77-2.67c4.39-1.89,8.63-4.06,13.17-5.63
					c4.09-1.41,8.17-2.8,12.46-3.43c2.86-0.42,5.69-0.13,8.48,0.67c0.66,0.19,1.13,0.48,0.89,1.55c-1.13,0.34-2.34,0.79-3.6,1.06
					c-4.56,0.97-7.89,4.04-11.5,6.63c-1.12,0.81-2.21,1.66-3.34,2.45c-0.67,0.46-1.41,0.84-2.12,1.25c3.36-0.69,6.57-1.67,9.51-3.38
					c2.13-1.24,4.28-2.47,6.52-3.5c3-1.38,5.99-2.78,9.3-3.43c4.12-0.8,7.8,0.22,11.31,2.16c1.63,0.9,3.27,3.08,3.78,4.78
					c-0.74-0.03-1.38,0.02-1.99-0.1c-4.24-0.82-8.14-0.11-11.59,2.57c-0.85,0.66-1.68,1.36-2.51,2.05
					c-2.52,2.06-5.12,3.99-8.41,4.66c-0.29,0.06-0.53,0.37-0.91,0.66c0.41,0.21,0.6,0.39,0.8,0.4c2.8,0.12,5.52-0.1,8.16-1.23
					c2.9-1.24,5.84-2.44,8.85-3.39c5.31-1.68,9.08,0.2,12.67,4.33c0.5,0.58,1.01,1.2,1.32,1.9c0.43,0.97,0.67,2.03,1.01,3.05
					c0.24,0.71,0.86,1.45,0.07,2.11c-0.73,0.61-1.28-0.13-1.84-0.46c-1.95-1.17-4.03-1.51-6.21-0.9c-1.19,0.33-2.3,0.98-3.5,1.18
					c-1.25,0.21-2.56,0.05-3.85,0.05c0.33,0.51,0.71,0.74,1.11,0.77c2.61,0.23,5.22,0.49,7.84,0.61c4.97,0.23,8,3.14,10.17,7.25
					c0.61,1.15,1.11,2.37,1.73,3.52c0.74,1.39,0.49,1.99-1.01,2.15c-1.68,0.19-3.37,0.41-5.05,0.58c-2.75,0.28-5.46,0.11-7.74-1.64
					c-1.52-1.16-2.85-2.57-4.25-3.88c-1.97-1.85-4.09-3.36-7.36-3.87c0.79,2.38,1.4,4.34,2.09,6.27c0.14,0.4,0.53,0.75,0.86,1.05
					c2.56,2.3,5.26,4.3,9.02,3.78c0.15-0.02,0.35-0.03,0.45,0.05c0.34,0.25,0.86,0.53,0.89,0.84c0.03,0.3-0.41,0.74-0.75,0.95
					c-4.06,2.44-8.54,1.48-12.89,1.53c-0.2,0-0.4-0.21-0.61-0.3c-2.36-1.02-4.44-2.39-6.2-4.31c-0.97-1.06-1.8-2.13-1.99-3.56
					c-0.38-2.96-1.63-5.62-2.75-8.32c-1.15-2.76-3.37-3.99-6.75-4.39c2.87,4.22,3.58,8.72,4.27,13.2c0.52,3.41,2.11,5.9,5.29,7.32
					c0.7,0.31,1.38,0.74,2.12,0.91c2.53,0.59,5.09,1.07,7.62,1.66c0.45,0.1,0.83,0.52,1.24,0.79c-0.34,0.35-0.63,0.93-1.01,1
					c-2.49,0.47-4.99,1-7.51,1.18c-4.18,0.29-8.29-0.51-12.31-1.56c-3.86-1.01-6.81-3.22-8.16-7.14c-0.52-1.52-0.82-3.13-1.33-4.65
					c-1.13-3.36-2.12-6.78-3.55-10c-1.32-2.98-3.89-4.79-7.08-5.72c0.1,0.66,0.32,1.2,0.68,1.63c0.69,0.83,1.42,1.63,2.19,2.39
					c2.85,2.82,4.16,6.26,4.13,10.22c-0.02,2.65,0.42,5.23,1.23,7.74c1.07,3.31,3.46,5.19,6.8,5.86c1.28,0.25,2.55,0.41,3.88,1.6
					c-1.96,0.89-3.62,1.3-5.4,0.93c-2.43-0.5-4.76-1.28-6.86-2.66c-1.09-0.72-2.2-1.48-3.4-1.97c-3.37-1.38-6.12-3.57-8.52-6.24
					c-2.56-2.84-4.55-5.89-5-9.92C119.29,163.24,118.28,159.92,116.47,156.99z"/>
			</g>
			<g>
				<path d="M181.1,103.93c-3.72,6.99-7.95,13.58-14.06,18.71c-2.7,2.27-5.57,4.47-8.7,6.04c-3.55,1.78-7.47,2.83-11.25,4.17
					c-3.92,1.39-7.91,2.6-11.77,4.15c-5.65,2.26-11.08,5.05-16.98,6.67c-2.12,0.58-4.21,0.86-6.37,0.23
					c-0.76-0.22-1.71-0.37-1.52-1.35c0.1-0.49,0.86-1,1.43-1.22c4.08-1.6,8.18-3.16,12.29-4.68c3.73-1.38,7-3.43,9.94-6.14
					c3.47-3.2,6.84-6.47,9.29-10.53c1.55-2.57,2.89-5.27,4.17-7.98c1.61-3.41,3.28-6.82,4.49-10.37c0.91-2.69,2.32-5.02,3.84-7.32
					c0.89-1.34,2.03-2.47,3.82-2.95c0,0.49,0.04,0.85-0.01,1.21c-0.25,2.05-0.88,4.13-0.68,6.14c0.25,2.59,0.03,5.08-0.37,7.58
					c-0.62,3.92-1.8,7.64-4.24,10.87c-0.73,0.96-1.33,2.02-2,3.04c2.81-1.38,4.73-3.48,6.32-6.03c1.54-2.47,3.24-4.88,5.16-7.07
					c1.71-1.96,3.78-3.57,6.27-4.61c5.94-2.48,11.45-5.68,16.17-10.14c0.62-0.58,1.45-0.93,2.19-1.39c0.17,0.2,0.34,0.4,0.51,0.6
					c-0.61,0.95-1.23,1.9-1.84,2.86C185.14,97.58,182.86,100.62,181.1,103.93z"/>
			</g>
			<g>
				<path d="M91.63,79.88c3.21-2.78,6.4-5.56,8.74-9.17c0.21-0.32,0.43-0.79,0.71-0.85c0.32-0.07,0.95,0.17,1.03,0.42
					c0.13,0.38-0.01,0.91-0.18,1.33c-1.55,3.94-2.89,7.97-4.76,11.75c-1.73,3.51-4.01,6.75-6.08,10.08
					c-2.84,4.57-5.59,9.22-8.63,13.66c-2.7,3.94-5.75,7.63-9.87,10.24c-0.97,0.62-1.91,1.32-2.73,2.12
					c-0.59,0.58-0.96,1.39-1.58,2.32c-1.67-0.65-1.96-1.47-1.41-3.49c0.51-1.84,0.89-3.72,1.25-5.6c0.56-2.95,1.02-5.92,1.6-8.87
					c0.35-1.81,0.86-3.6,1.26-5.4c1.67-7.48,3.71-14.81,8.13-21.23c2.09-3.04,4.11-6.14,6.27-9.14c1.17-1.62,2.55-3.08,3.85-4.6
					c0.46-0.54,0.94-1.09,1.89-0.29c-0.54,1.18-1.06,2.44-1.68,3.64c-1.71,3.31-3.04,6.73-3.48,10.47
					c-0.36,3.13-0.66,6.29-2.15,9.17c-0.06,0.12,0.04,0.33,0.07,0.54C86.53,84.56,89.01,82.15,91.63,79.88z"/>
			</g>
			<g>
				<path d="M106.07,24.97c-1.35-0.7-2.65-1.54-4.07-2.08c-2.37-0.91-4.8-1.66-7.23-2.41c-3.69-1.14-7.15-0.6-10.33,1.61
					c-0.6,0.42-1.21,0.82-1.81,1.23c-0.2-0.15,0.43-3.93,1.62-5.41c0.48-0.59,2.96-3.83,4.09-4.56c0.84-0.54,6.01-4.53,8.18-5.38
					c6.38-2.5,16.51-0.53,20.96,7.28c0.8,1.4,1.77,2.73,2.85,3.92c1.93,2.11,8.93,4.6,9.01,5.84c-0.96,0.39-11.06,1.59-15.21,1.58
					C111.91,26.58,106.54,25.22,106.07,24.97z"/>
			</g>
			<g>
				<path d="M70.68,165.31c2.02-2.65,3.78-5.45,3.74-9.02c0.21-0.07,2.83,3.07,3.9,9.52c0.67,4.62-2.63,10.69-8.14,11.5
					c-2.06,0.3-3.52-0.49-3.97-2.51c-0.48-2.13-0.13-4.16,1.26-5.88C68.48,167.67,69.7,166.59,70.68,165.31z"/>
			</g>
			<g>
				<path d="M60.7,161.52c1.55,0.05,2.75,1.27,2.62,2.87c-0.08,0.97-0.4,1.94-0.72,2.87c-0.63,1.86-1.91,2.56-4.18,2.46
					c-1.75-0.08-3.07-1.51-3.06-3.12C55.38,164.24,58.33,161.43,60.7,161.52z"/>
			</g>
			<g>
				<path d="M142.71,77.46c-2.2,0.22-3.42-1.22-3.65-4.3c-0.15-2.01,1.05-3.21,3.46-3.43c2.08-0.2,4.19,1.54,4.35,3.59
					C147.03,75.33,145.13,77.22,142.71,77.46z"/>
			</g>
			<g>
				<path d="M59.47,175.35c1.45,0,2.52,1.17,2.48,2.7c-0.04,1.45-1.13,2.31-2.86,2.24c-1.44-0.05-2.6-1.1-2.6-2.36
					C56.49,176.56,57.89,175.34,59.47,175.35z"/>
			</g>
			<g>
				<path d="M150.77,62.12c-1.03-0.08-2.07-1.46-2.03-2.68c0.04-1.06,0.89-1.87,1.94-1.85c1.23,0.01,2.11,0.96,2.08,2.25
					C152.73,61.32,151.95,62.21,150.77,62.12z"/>
			</g>
			<g>
				<path d="M48.38,174.86c0.8,1.08,1.49,1.63,1.59,2.27c0.1,0.61-0.27,1.46-0.73,1.93c-0.3,0.31-1.31,0.37-1.63,0.1
					c-0.42-0.35-0.71-1.19-0.6-1.73C47.16,176.69,47.73,176.03,48.38,174.86z"/>
			</g>
			<g>
				<path d="M140.12,199.69c-0.23,0.14-0.47,0.28-0.7,0.42c-0.04-0.07-0.08-0.14-0.12-0.21c0.23-0.14,0.47-0.28,0.7-0.42
					C140.03,199.54,140.08,199.61,140.12,199.69z"/>
			</g>
			<g>
				<path d="M89.67,176.25c-2.24,0.65-3.19,0.31-3.97-1.82c-0.47-1.28-0.69-2.69-0.81-4.07c-0.54-6.1-2.38-11.57-7.1-15.81
					c-1.8-1.62-1.69-2.84,0.15-4.43c0.51-0.44,1.15-0.85,1.79-0.99c1.57-0.34,3.18-0.65,4.78-0.73c3.34-0.18,6.57,0.6,9.82,1.32
					c5.58,1.24,10.71,3.43,15.36,6.73c1.84,1.31,3.43,2.87,4.52,4.89c1.35,2.49,0.98,5.01-1.06,6.94c-0.44,0.42-0.95,0.76-1.49,1.18
					c0.24,0.45,0.39,0.89,0.67,1.24c1.49,1.87,3.03,3.7,4.51,5.57c5.78,7.31,6.68,15.39,3.55,23.99c-1.52,4.17-5,5.62-9.12,4.1
					c-0.64-0.23-1.28-0.44-2.14-0.74c-0.33,0.89-0.59,1.67-0.9,2.43c-0.71,1.72-2.59,5.56-2.71,5.87c-1.95,5.11-6.9,8.75-12.7,8.75
					c-7.51,0-13.6-6.09-13.6-13.6c0-0.16,0.02-0.32,0.02-0.49c0-0.03,0-0.07,0.01-0.1c0.09-2.13,0.66-4.14,1.62-5.9
					c0.22-0.64,3.61-7.36,5.09-10.06c2.05-3.74,3.72-7.63,4.59-11.82c0.18-0.85,0.49-1.76-0.11-2.62
					C90.11,176.15,89.89,176.19,89.67,176.25z"/>
			</g>
			<g>
				<path d="M0.32,87.77c0.86-2.05,3.01-3.4,5.27-3.44c1.64-0.03,3.28-0.16,5.02-0.25c-0.14-0.47-0.15-0.73-0.28-0.88
					c-2.64-3.18-4.43-6.81-5.9-10.65c-0.9-2.34-1.39-4.66-1.37-7c-0.07-0.55-0.11-1.1-0.11-1.66c0-3.7,1.47-7.06,3.84-9.53
					c2.51-2.61,6.03-4.25,9.94-4.25c5.29,0,9.89,2.99,12.19,7.37c0.93,1.76,1.47,3.74,1.56,5.85c0.16,0.92,0.3,1.86,0.4,2.8
					c0.33,3.06,0.36,6.16,0.59,9.23c0.08,1.03,0.35,2.04,0.55,3.15c0.57-0.2,0.85-0.33,1.14-0.4c3.15-0.83,5.49,0.35,6.6,3.39
					c0.37,1.01,0.68,2.05,0.91,3.1c0.9,4.2,1.21,8.54,3.32,12.44c1.61,2.97,2.91,6.11,4.51,9.09c1.24,2.3,2.69,4.49,4.11,6.69
					c0.51,0.79,0.89,1.45,0.03,1.93c-3.82-2.08-7.43-4.13-11.1-6.05c-6.89-3.6-14.36-5.02-22.02-5.54c-1.52-0.1-3.07,0.25-4.6,0.28
					c-2.45,0.05-4.75-0.54-6.72-2.08c-1.65-1.29-1.63-2.96-0.03-4.22c0.47-0.37,0.97-0.72,1.62-1.2c-2.2-0.89-4.19-1.54-6.03-2.48
					c-1.13-0.58-2.12-1.52-3.02-2.44C-0.15,90.11-0.17,88.92,0.32,87.77z"/>
			</g>
			<g>
				<path d="M40.46,116.98c-0.11,0.2,5.25,5,7.23,6.71c4.74,4.1,9.59,8,15.7,9.93c0.65,0.21,1.25,0.57,2.36,1.09
					c-1.7,0.22-2.93,0.37-4.17,0.54c-2.67,0.36-5.35,0.68-8.01,1.11c-2.55,0.42-4.89,1.32-6.86,3.09c-1.18,1.06-2.48,1.97-4.04,3.18
					c2.82,1.38,13.37,2.1,15.96,1.93c2.65-0.17,5.27-0.95,8.3-1.54c-2.32,2.38-4.54,4.42-6.47,6.72c-1.9,2.26-4.24,4.24-5.51,7.55
					c1.02-0.18,1.66-0.27,2.29-0.42c0.9-0.22,9.73-2.38,13.06-3.79c1.52-0.65,2.89-1.75,4.17-2.83c2.25-1.87,4.31-3.97,6.58-5.82
					c2.6-2.12,5.51-3.69,8.98-3.91c4.54-0.29,9.11-0.35,13.61-0.92c4.35-0.55,8.75-1.25,12.91-2.58c6.61-2.1,12.04-6.1,14.94-12.6
					c2.11-4.72,3.29-9.74,2.92-15.06c-0.2-2.79-0.59-5.49-1.25-8.2c-0.92-3.82,0.08-7.52,1.31-11.1c0.52-1.5,5.84-2.51,5.76-3.85
					c-0.03-0.54-1.26-1.2-2.06-1.48c-2.5-0.89-4.36-2.33-5.76-4.68c-2.41-4.06-6.39-6.1-10.8-7.27c-1.14-0.3-2.44-0.12-3.66-0.04
					c-7.12,0.47-11.66,4.7-15,10.54c-2.1,3.68-3.9,7.53-6.05,11.17c-2.38,4.05-9.86,14.16-10.97,15.33
					c-3.77,3.98-7.66,7.83-12.36,10.75c-0.24,0.15-0.37,0.46-0.57,0.72c1.1,2.26,4.09,1.36,5.51,3.49
					c-2.54,1.29-5.08,1.93-7.81,1.57c-3.36-0.44-6.25-2.07-9.09-3.8c-3.63-2.2-7.24-4.49-11.51-5.19c-1.96-0.32-3.98-0.26-5.98-0.33
					C42.88,116.95,41.67,116.98,40.46,116.98z M123.3,83.07c0-0.91,0.74-1.65,1.65-1.65c0.91,0,1.65,0.74,1.65,1.65
					c0,0.91-0.74,1.65-1.65,1.65C124.04,84.73,123.3,83.99,123.3,83.07z"/>
			</g>
			<g>
				<path d="M129.49,68.02c-5.87,0-10.63-4.76-10.63-10.63c0-2.31,0.74-4.44,1.99-6.18c0.27-0.75,0.74-1.32,1.39-1.76
					c0.29-0.2,0.58-0.38,0.88-0.56c1.77-1.33,3.97-2.13,6.36-2.13c5.87,0,10.63,4.76,10.63,10.63S135.36,68.02,129.49,68.02z"/>
			</g>
		</g>
		<g>
			<path class="st5" d="M101.4,208.13c-54.22,0-98.33-44.11-98.33-98.33s44.11-98.33,98.33-98.33s98.33,44.11,98.33,98.33
				S155.62,208.13,101.4,208.13z M101.4,16.99c-51.17,0-92.8,41.63-92.8,92.8s41.63,92.8,92.8,92.8s92.8-41.63,92.8-92.8
				S152.57,16.99,101.4,16.99z"/>
		</g>
	</g>
</g>
<g id="Capa_1">
</g>
</svg>
